<svg width="96" height="23" viewBox="0 0 96 23" fill="none" xmlns="http://www.w3.org/2000/svg">
<path fill-rule="evenodd" clip-rule="evenodd" d="M60.8501 3.50005V4.15005C60.8501 4.50005 61.2001 4.85005 61.5501 4.85005H62.5501L60.1501 7.60005H58.8001V0.0500488H55.3001V0.700049C55.3001 1.05005 55.7001 1.40005 56.0501 1.40005H57.4001V13.1H55.3501V14.5H60.8501V13.1H58.8001V9.00005H59.4501C59.9501 9.00005 60.1501 9.00005 60.4501 9.45005L62.7001 13.25C63.2001 14.1 63.5501 14.5 64.6001 14.5H65.6501V13.1H64.9501C64.3501 13.1 64.2501 13.05 64.0001 12.7L61.9001 9.15005C61.5001 8.40005 61.2001 8.30005 61.1501 8.30005L64.3001 4.85005H65.6501V3.50005H60.8501ZM74.6001 11C74.3001 11 73.9001 11.4 73.9001 11.75V13.1H68.4001L75.3001 4.85005V3.50005H66.7001V6.90005H67.3501C67.7001 6.90005 68.0501 6.55005 68.0501 6.25005V4.85005H73.2001L66.3501 13.1V14.5H75.3001V11H74.6001ZM52.6001 14.45V13.45C52.6001 13.1 52.9501 12.75 53.3001 12.75H54.3001V14.45H52.6001Z" fill="white"/>
<path fill-rule="evenodd" clip-rule="evenodd" d="M21.3 0.750049V1.75005H23V0.0500488H22C21.65 0.0500488 21.3 0.400049 21.3 0.750049ZM37.8 3.50005V0.700049H36.5V3.50005H34.35V4.15005C34.35 4.50005 34.7 4.85005 35.05 4.85005H36.4V10.35C36.4 14 39.05 14.5 39.9 14.5C40.65 14.5 40.9 14.15 40.9 14.15V12.75C40.9 12.75 40.6 13.1 39.85 13.1C39.1 13.1 37.85 12.6 37.85 10.35V4.85005H39.85C40.1995 4.88393 40.5411 4.73211 40.75 4.45005C41.2 3.85005 41.6 3.50005 41.6 3.50005H37.8Z" fill="white"/>
<path fill-rule="evenodd" clip-rule="evenodd" d="M8.25 7.25C8.25 4.4 6.85 3.5 4.45 3.5C2.1 3.5 0.5 4.75 0.5 4.75L1.15 5.6C1.3 5.75 1.5 5.8 1.65 5.7C2.25 5.4 3.5 4.85 4.5 4.85C6 4.85 6.9 5.25 6.9 7.25V7.6H6.25C4 7.6 0 8 0 11.4C0.0268713 13.2941 1.55586 14.8231 3.45 14.85C5.4 14.85 6.05 14.05 6.55 13.45L6.85 13.15C6.85 13.85 7.35 14.5 8.25 14.5H9.95V13.1H8.6C8.35 13.1 8.25 13 8.25 12.75V7.25ZM6.85 9.3C6.85 11.2 5.55 13.45 3.45 13.45C1.95 13.45 1.35 12.45 1.35 11.4C1.35 9.2 5.35 9 6.2 9H6.85V9.3ZM29.9 3.5C32.25 3.5 33.7 4.4 33.7 7.25V12.75C33.7 13 33.8 13.1 34.05 13.1H35.4V14.5H33.7C32.8 14.5 32.25 13.85 32.25 13.15L32 13.45C31.5 14.05 30.8 14.85 28.85 14.85C26.9562 14.7959 25.4492 13.2446 25.45 11.35C25.45 7.95 29.5 7.6 31.6 7.6H32.3V7.25C32.3 5.25 31.35 4.85 29.9 4.85C28.9 4.85 27.65 5.35 27.15 5.7C26.95 5.8 26.7 5.7 26.6 5.6L25.95 4.75C25.95 4.75 27.5 3.5 29.95 3.5H29.9ZM28.9 13.45C31 13.45 32.3 11.2 32.3 9.3V9H31.6C30.75 9 26.8 9.2 26.8 11.4C26.8 12.5 27.4 13.45 28.85 13.45H28.9ZM46.05 3.5C48.4 3.5 49.85 4.4 49.85 7.25V12.75C49.85 13 49.95 13.1 50.2 13.1H51.55V14.5H49.85C48.95 14.5 48.4 13.85 48.4 13.15L48.15 13.45C47.65 14.05 46.95 14.85 45.05 14.85C43.117 14.85 41.55 13.283 41.55 11.35C41.55 7.95 45.65 7.6 47.8 7.6H48.45V7.25C48.45 5.25 47.5 4.85 46.05 4.85C45.05 4.85 43.8 5.35 43.3 5.7C43.1 5.8 42.85 5.7 42.75 5.6L42.1 4.75C42.1 4.75 43.7 3.5 46.1 3.5H46.05ZM45.05 13.45C47.15 13.45 48.45 11.2 48.45 9.3V9H47.8C46.9 9 42.95 9.2 42.95 11.4C42.95 12.5 43.55 13.45 45.05 13.45Z" fill="white"/>
<path fill-rule="evenodd" clip-rule="evenodd" d="M22.9999 13.1V3.5H15.8499V4.85H17.5999L14.8499 12.4L11.9999 4.85H13.3499V3.5H8.2499L8.9999 4.45C9.2499 4.75 9.5999 4.85 9.9999 4.85H10.6499L14.0999 14.5H15.4499L18.9499 4.85H21.6499V13.1H20.6499C20.2999 13.1 19.9499 13.45 19.9499 13.8V14.5H25.0999V13.1H22.9999ZM2.3499 21.15C2.10716 21.2901 1.83002 21.3594 1.5499 21.35C1.0999 21.35 0.799902 21.2 0.549902 20.95C0.299902 20.65 0.149902 20.3 0.149902 19.8C0.149902 19.3 0.299902 18.95 0.599902 18.65C0.849902 18.3 1.2499 18.15 1.6999 18.15C1.8999 18.15 2.1499 18.2 2.3499 18.3V18.6C2.1499 18.5 1.8499 18.4 1.6499 18.4C1.2999 18.4 0.999902 18.55 0.749902 18.8C0.533383 19.0867 0.42693 19.4415 0.449902 19.8C0.449902 20.2 0.549902 20.5 0.749902 20.8C0.949902 21 1.2499 21.1 1.5499 21.1C1.8499 21.1 2.0999 21.05 2.3499 20.85V21.15ZM3.3999 20.8C3.1999 20.5 3.1499 20.2 3.1499 19.8H5.3499V19.65C5.3499 19.2 5.2499 18.85 5.0499 18.55C4.85073 18.2836 4.53213 18.1337 4.1999 18.15C3.7999 18.15 3.4499 18.3 3.1999 18.6C2.9499 18.95 2.8499 19.3 2.8499 19.75C2.8499 20.25 2.9499 20.65 3.1999 20.95C3.4499 21.2 3.7499 21.35 4.1499 21.35C4.5499 21.35 4.8999 21.25 5.1999 21.05V20.75C4.8999 21 4.5499 21.1 4.1999 21.1C3.8999 21.1 3.5999 21 3.3999 20.8ZM5.0999 19.55C5.0999 19.2 4.9999 18.9 4.8499 18.7C4.6999 18.5 4.4499 18.4 4.1999 18.4C3.8999 18.4 3.6999 18.5 3.4999 18.7C3.2999 18.9 3.1999 19.2 3.1499 19.55H5.0999ZM6.3999 22.7V20.75C6.5999 21.15 6.9499 21.4 7.3999 21.4C7.7999 21.4 8.1499 21.2 8.3999 20.9C8.6499 20.6 8.7499 20.15 8.7499 19.65C8.7499 19.2 8.6499 18.85 8.4499 18.55C8.1999 18.3 7.8999 18.15 7.5499 18.15C7.2999 18.15 7.0499 18.25 6.8999 18.35C6.6499 18.45 6.4999 18.65 6.3999 18.85V18.2H6.0999V22.7H6.3999ZM6.3999 20C6.3999 20.3 6.4999 20.55 6.6999 20.8C6.8499 21 7.0999 21.1 7.4499 21.1C7.7499 21.1 7.9499 21 8.1999 20.7C8.3999 20.45 8.4999 20.1 8.4999 19.7C8.4999 19.3 8.3999 19 8.1999 18.75C8.0499 18.55 7.7999 18.4 7.4999 18.4C7.19369 18.3879 6.89885 18.5169 6.6999 18.75C6.4999 19 6.3999 19.25 6.3999 19.6V20ZM11.5999 20.75L11.6499 20.4L11.5999 20.15L11.4999 19.95C11.4605 19.9303 11.4288 19.9028 11.3988 19.8767C11.3527 19.8367 11.3105 19.8 11.2499 19.8C11.1999 19.7 11.0999 19.7 10.9499 19.7L11.1999 19.6L11.3999 19.45L11.4999 19.25V18.7L11.2999 18.45C11.2499 18.4 11.1499 18.3 11.0499 18.3L10.6499 18.25H9.4999V21.25H10.7499C10.8657 21.2706 10.9841 21.2706 11.0999 21.25C11.3352 21.17 11.5199 20.9853 11.5999 20.75ZM11.2499 19V18.8L11.0999 18.65C11.0416 18.602 10.9733 18.5678 10.8999 18.55L10.5999 18.5H9.7999V19.6H10.4999L10.8499 19.55C10.9263 19.55 10.9735 19.4916 11.0138 19.4418C11.0263 19.4264 11.0381 19.4118 11.0499 19.4L11.1499 19.25L11.1999 19H11.2499ZM11.3499 20.4V20.45V20.65L11.1999 20.8L10.9999 20.95L10.6999 21H9.7999V19.85H10.5999L10.9499 19.9L11.1999 20C11.266 20.0529 11.3176 20.1217 11.3499 20.2V20.4ZM14.4999 18.75C14.4657 18.7825 14.4324 18.8158 14.3999 18.85L12.5999 21.3H12.3999V18.25H12.6999V20.75C12.7154 20.7161 12.732 20.6827 12.7499 20.65L14.5499 18.25H14.7999V21.25H14.4999V18.75ZM16.8999 21.35C17.18 21.3594 17.4572 21.2901 17.6999 21.15V20.85C17.4999 21.05 17.1999 21.1 16.8999 21.1C16.5999 21.1 16.2999 21 16.0999 20.8C15.8999 20.5 15.7999 20.2 15.7999 19.8C15.791 19.4352 15.9155 19.0797 16.1499 18.8C16.3499 18.55 16.6499 18.4 16.9999 18.4C17.2499 18.4 17.4999 18.5 17.6999 18.6V18.3C17.4999 18.2 17.2499 18.15 17.0499 18.15C16.5999 18.15 16.2499 18.3 15.9499 18.65C15.6499 18.95 15.4999 19.3 15.4999 19.8C15.4999 20.3 15.6499 20.65 15.8999 20.95C16.1499 21.2 16.4999 21.35 16.8999 21.35ZM22.1499 18.5H20.3499V21.3H20.0999V18.25H22.3999V21.25H22.1499V18.5ZM23.5999 20.9C23.7999 21.2 24.1499 21.35 24.5999 21.35V21.4C25.0499 21.4 25.3999 21.2 25.6499 20.9C25.8999 20.65 26.0499 20.25 26.0499 19.75C26.0499 19.25 25.8999 18.9 25.6499 18.6C25.3999 18.3 25.0499 18.15 24.6499 18.15C24.1999 18.15 23.8499 18.3 23.5499 18.6C23.2999 18.9 23.1499 19.3 23.1499 19.8C23.1499 20.25 23.2999 20.65 23.5999 20.9ZM24.5999 18.4C24.2499 18.4 23.9999 18.55 23.7499 18.8C23.5334 19.0867 23.4269 19.4415 23.4499 19.8C23.4499 20.2 23.5499 20.5 23.7499 20.75C23.9499 21 24.2499 21.1 24.5999 21.1C24.9232 21.1282 25.2402 20.9977 25.4499 20.75C25.6664 20.4633 25.7729 20.1085 25.7499 19.75C25.7729 19.3915 25.6664 19.0367 25.4499 18.75C25.2402 18.5023 24.9232 18.3718 24.5999 18.4ZM27.0499 19.8L28.4999 21.3H28.8499L27.3499 19.7L28.7999 18.2H28.4499L27.0499 19.7V18.25H26.7999V21.3H27.0499V19.8ZM30.1499 21.9C30.0499 22.2 29.8999 22.4 29.7999 22.5C29.6499 22.65 29.4999 22.7 29.2999 22.7H28.9999V22.4H29.2499C29.4999 22.4 29.6499 22.3 29.7999 21.9L30.0999 21.25L28.9499 18.25H29.2499L30.1499 20.75C30.1876 20.8144 30.221 20.8812 30.2499 20.95L30.2999 20.75L31.2999 18.25H31.5999L30.0999 21.9H30.1499ZM32.4999 18.5H34.1999V21.25H34.4999V18.25H32.1999V21.3H32.4999V18.5ZM37.1499 21.3L35.7499 19.8V21.3H35.4499V18.25H35.7499V19.7L37.1499 18.2H37.4999L35.9999 19.7L37.4999 21.3H37.1499ZM40.0999 18.85C40.1323 18.8157 40.1657 18.7824 40.1999 18.75V21.25H40.4499V18.25H40.2499L38.4499 20.65C38.415 20.6817 38.3816 20.7151 38.3499 20.75V18.25H38.0999V21.3H38.2999L40.0999 18.85ZM47.1499 21.3L45.3499 19.25H45.2999V19.15H45.2499V21.3H44.9499V19.15C44.9192 19.1859 44.8858 19.2193 44.8499 19.25L43.0499 21.25H42.6499L44.6499 19.1L42.7499 17H43.1499L44.8499 18.95C44.8865 18.9799 44.92 19.0134 44.9499 19.05V17.05H45.2499V18.95H45.3499L46.9999 17H47.3999L45.4999 19.1L47.4999 21.3H47.1499ZM51.8499 21.3V22.45V22.5H52.1499V21H51.5499V17H49.6999C49.5977 18.3923 49.224 19.7512 48.5999 21H48.2499V22.45H48.5499V21.3H51.8499ZM51.2499 17.3H49.9999C49.9808 17.6901 49.9136 18.0763 49.7999 18.45C49.599 19.3318 49.297 20.1875 48.8999 21H51.2499V17.3ZM52.5999 19.35V19.65H54.2499V19.35H52.5999ZM57.6499 19.85C57.6554 20.0873 57.6216 20.3238 57.5499 20.55L57.3499 20.85C57.1193 21.1713 56.7453 21.3583 56.3499 21.35C56.0999 21.35 55.9499 21.35 55.7499 21.25L55.3499 20.85C55.1999 20.7 55.1499 20.5 55.0999 20.25C54.9999 20.05 54.9999 19.75 54.9999 19.45L55.0499 18.55C55.0499 18.3 55.1499 18.05 55.2499 17.9L55.4999 17.45C55.661 17.2767 55.8698 17.155 56.0999 17.1C56.3761 17.0059 56.6608 16.939 56.9499 16.9H57.1499L57.3499 16.75V17.05L57.1999 17.15H56.9499C56.6133 17.2388 56.2798 17.3388 55.9499 17.45C55.7499 17.55 55.5999 17.75 55.4999 17.95L55.2999 18.95L55.4999 18.7C55.6474 18.5348 55.8378 18.4137 56.0499 18.35H56.3999C56.6499 18.35 56.7999 18.35 56.9999 18.45C57.1135 18.4879 57.1984 18.5831 57.2764 18.6705L57.2765 18.6706C57.3014 18.6986 57.3257 18.7258 57.3499 18.75L57.5999 19.25L57.6499 19.85ZM57.2999 19.35L57.3499 19.85L57.2999 20.35L57.0999 20.75L56.7999 21C56.6499 21.1 56.5499 21.1 56.3999 21.1L55.8999 21L55.5499 20.7L55.3499 20.2L55.2999 19.6C55.3034 19.5 55.3034 19.4 55.2999 19.3C55.3543 19.1923 55.4214 19.0916 55.4999 19C55.6273 18.8238 55.8001 18.6856 55.9999 18.6C56.1157 18.5794 56.2341 18.5794 56.3499 18.6C56.5018 18.582 56.6557 18.5991 56.7999 18.65C56.8332 18.6833 56.8721 18.7111 56.911 18.7389L56.911 18.7389C56.9888 18.7944 57.0666 18.85 57.0999 18.95C57.1999 19.05 57.2999 19.15 57.2999 19.35ZM60.4999 21.25V18.8L60.3999 18.85L58.5999 21.3H58.3999V18.25H58.6999V20.75C58.7152 20.716 58.7319 20.6826 58.7499 20.65L60.5499 18.25H60.7999V21.25H60.4999ZM62.6499 18.5H63.4999V21.3L63.5499 21.25H63.7999V18.25H62.3999L62.2999 19.45L62.0999 20.4L61.8499 20.9C61.7499 21.05 61.6499 21.05 61.4999 21.05H61.3499V21.3C61.5869 21.361 61.8382 21.2837 61.9999 21.1C62.1316 20.9546 62.2336 20.7847 62.2999 20.6C62.4647 19.9089 62.5817 19.2072 62.6499 18.5ZM64.8499 19.8C64.8499 20.2 64.9499 20.5 65.1499 20.8C65.2999 21 65.5999 21.1 65.8999 21.1C66.2499 21.1 66.5999 21 66.8999 20.75V21.05C66.5999 21.25 66.2499 21.35 65.8999 21.35C65.4999 21.35 65.1499 21.2 64.8999 20.95C64.6999 20.65 64.5499 20.25 64.5499 19.75C64.5499 19.3 64.6999 18.95 64.9499 18.6C65.1999 18.3 65.4999 18.15 65.9499 18.15C66.2821 18.1337 66.6007 18.2836 66.7999 18.55C66.9999 18.85 67.0999 19.2 67.0999 19.65V19.8H64.8499ZM66.5499 18.7C66.6999 18.9 66.7999 19.2 66.7999 19.55H64.8499C64.8999 19.2 64.9999 18.9 65.1999 18.7C65.3999 18.5 65.5999 18.4 65.8999 18.4C66.1999 18.4 66.3999 18.5 66.5499 18.7ZM68.5999 21.3H68.3499V18.5H67.4499V18.25H69.4999V18.5H68.5999V21.3ZM70.0999 20.9C70.3499 21.2 70.6999 21.35 71.0999 21.35L71.1499 21.4C71.5499 21.4 71.8999 21.2 72.1499 20.9C72.4499 20.65 72.5499 20.25 72.5499 19.75C72.5499 19.25 72.4499 18.9 72.1499 18.6C71.9499 18.3 71.5999 18.15 71.1499 18.15C70.6999 18.15 70.3499 18.3 70.0999 18.6C69.7999 18.9 69.6999 19.3 69.6999 19.8C69.6999 20.25 69.7999 20.65 70.0999 20.9ZM71.0999 18.4C70.7999 18.4 70.4999 18.55 70.2999 18.8C70.0655 19.0797 69.941 19.4352 69.9499 19.8C69.9499 20.2 70.0999 20.5 70.2999 20.75C70.4999 21 70.7999 21.1 71.1499 21.1C71.4561 21.1121 71.751 20.9831 71.9499 20.75C72.1664 20.4633 72.2729 20.1085 72.2499 19.75C72.2729 19.3915 72.1664 19.0367 71.9499 18.75C71.751 18.5169 71.4561 18.3879 71.1499 18.4H71.0999ZM75.3999 20.75L75.4499 20.4H75.3999V20.15C75.3889 20.1281 75.3804 20.1086 75.3727 20.0909C75.3451 20.0281 75.328 19.989 75.2499 19.95C75.2381 19.9382 75.2263 19.9236 75.2138 19.9082C75.1735 19.8584 75.1263 19.8 75.0499 19.8C74.9499 19.7 74.8499 19.7 74.7499 19.7L74.9999 19.6L75.1499 19.45L75.2999 19.25L75.3499 18.95L75.2499 18.7C75.2499 18.6 75.1999 18.5 75.0999 18.45C75.0499 18.4 74.9499 18.3 74.8499 18.3L74.4499 18.25H73.2999V21.25H74.5499C74.6657 21.2706 74.7841 21.2706 74.8999 21.25C75.1352 21.17 75.3199 20.9853 75.3999 20.75ZM74.9999 19V18.8L74.8499 18.65C74.7916 18.602 74.7233 18.5678 74.6499 18.55L74.3499 18.5H73.4999V19.6H74.2999L74.6499 19.55L74.8499 19.4L74.9499 19.25V19H74.9999ZM75.0999 20.2V20.4L75.0499 20.65L74.9499 20.8L74.7499 20.95L74.4499 21H73.5499V19.85H74.3499L74.6999 19.9L74.9499 20C75.016 20.0529 75.0676 20.1217 75.0999 20.2Z" fill="white"/>
<path fill-rule="evenodd" clip-rule="evenodd" d="M88.55 0.85C88.55 1.31944 88.1695 1.7 87.7 1.7C87.2306 1.7 86.85 1.31944 86.85 0.85C86.85 0.380558 87.2306 0 87.7 0C88.1695 0 88.55 0.380558 88.55 0.85ZM90.9 0.85C90.9 1.31944 90.5195 1.7 90.05 1.7C89.5806 1.7 89.2 1.31944 89.2 0.85C89.2 0.380558 89.5806 0 90.05 0C90.5195 0 90.9 0.380558 90.9 0.85ZM92.95 16.6C93.95 16.6 94.95 15.6 94.95 14.25V4.4C94.95 2.75 93.95 2.05 92.25 2.05H85.5C83.8 2.05 82.8 2.75 82.8 4.4V14.25C82.8 15.6 83.8 16.6 84.8 16.6L81.8 21.35H83.45L84.15 20.35H93.65L94.3 21.35H96L92.95 16.6ZM91.2104 14.7444C91.4825 15.1492 91.9725 15.349 92.45 15.25C93.007 15.1345 93.4064 14.6438 93.4064 14.075C93.4064 13.5062 93.007 13.0155 92.45 12.9C91.9725 12.801 91.4825 13.0008 91.2104 13.4056C90.9384 13.8104 90.9384 14.3396 91.2104 14.7444ZM87.2 3.05C87.2 2.8 87.3 2.7 87.55 2.7H90.25C90.45 2.7 90.6 2.8 90.6 3.05V3.75C90.6 3.95 90.5 4.05 90.25 4.05H87.5C87.25 4.05 87.15 3.95 87.15 3.75V3L87.2 3.05ZM85.5 4.75C84.65 4.75 84.15 5.4 84.15 6.1V7.8C84.15 8.65 84.75 9.15 85.5 9.15H92.25C93 9.15 93.65 8.65 93.65 7.8V6.1C93.6 5.4 93.15 4.75 92.25 4.75H85.5ZM84.15 14.1C84.051 13.6224 84.2509 13.1324 84.6557 12.8604C85.0605 12.5883 85.5896 12.5883 85.9944 12.8604C86.3992 13.1324 86.5991 13.6224 86.5 14.1C86.3845 14.657 85.8939 15.0563 85.325 15.0563C84.7562 15.0563 84.2656 14.657 84.15 14.1ZM85.5 18.3L84.8 19.3H92.95L92.25 18.3H85.5Z" fill="white"/>
</svg>
