<svg width="74" height="22" viewBox="0 0 74 22" fill="none" xmlns="http://www.w3.org/2000/svg">
<path fill-rule="evenodd" clip-rule="evenodd" d="M41.4986 6.15425L43.9305 7.74933L51.1854 3.07001L58.5605 7.74933L60.8554 6.15425L51.177 0L41.4986 6.15425ZM25.5845 21.9996V9.31454H28.3326V14.0328H30.6887C34.0926 14.0328 35.6228 15.7034 35.6228 18.0346C35.6228 19.8484 34.5087 21.9996 30.6887 21.9835C26.8687 21.9675 25.5845 21.9996 25.5845 21.9996ZM28.3403 19.6198V16.4499H31.0963C31.8848 16.4499 33.1387 16.6416 33.1387 18.0348C33.1387 19.428 32.0707 19.6198 31.2932 19.6198H28.3403ZM13.3824 22V9.31493C13.3824 9.31493 14.6665 9.34706 18.4865 9.33099C22.3065 9.31493 23.4206 11.8626 23.4206 13.6763C23.4206 16.0075 21.8905 18.0745 18.4865 18.0745H16.1304V22H13.3824ZM16.1382 15.6575V11.6948H18.8942C19.6718 11.6948 20.7398 12.2829 20.7398 13.6761C20.7398 15.0693 19.4859 15.6575 18.6974 15.6575H16.1382ZM37 9.31493H39.7509V21.9996L37 22V9.31493ZM42.5331 9.31493V21.9996H59.8378V9.31493H57.0931V19.6499H52.5408V12.5127H49.8309V19.6499H45.2623V9.31493H42.5331ZM61.2055 21.9996L63.941 22L64.9439 19.4576H70.3426L71.2642 22L74 21.9996L68.6994 9.31493H66.3452L61.2055 21.9996ZM65.6998 17.0877H69.4845L67.4863 12.5882L65.6998 17.0877ZM2.74466 9.33099H0V22H2.74466V16.6474L7.89365 22H11.2245L5.31962 15.4802L11.2245 9.33099H7.89365L2.74466 14.4984V9.33099Z" fill="white"/>
</svg>
