<svg width="77" height="18" viewBox="0 0 77 18" fill="none" xmlns="http://www.w3.org/2000/svg">
<path fill-rule="evenodd" clip-rule="evenodd" d="M41.4937 3.0857C42.3025 3.0857 42.9582 2.39494 42.9582 1.54285C42.9582 0.690758 42.3025 0 41.4937 0C40.6849 0 40.0292 0.690758 40.0292 1.54285C40.0292 2.39494 40.6849 3.0857 41.4937 3.0857ZM46.3753 3.0857C47.1841 3.0857 47.8398 2.39494 47.8398 1.54285C47.8398 0.690758 47.1841 0 46.3753 0C45.5665 0 44.9108 0.690758 44.9108 1.54285C44.9108 2.39494 45.5665 3.0857 46.3753 3.0857ZM17.8179 17.9999C21.4575 17.9999 24.4081 15.0066 24.4081 11.3142C24.4081 7.62183 21.4575 4.62855 17.8179 4.62855C14.1782 4.62855 11.2277 7.62183 11.2277 11.3142C11.2277 15.0066 14.1782 17.9999 17.8179 17.9999ZM17.8179 15.5237C20.1095 15.5237 21.9672 13.6391 21.9672 11.3142C21.9672 8.98939 20.1095 7.10473 17.8179 7.10473C15.5262 7.10473 13.6685 8.98939 13.6685 11.3142C13.6685 13.6391 15.5262 15.5237 17.8179 15.5237ZM64.3396 11.3472C64.3392 11.4275 64.3374 11.5074 64.3342 11.587C64.3378 11.5124 64.3396 11.4405 64.3396 11.3718L64.3396 11.3472ZM64.2327 12.5202C64.0659 13.4492 63.7098 14.3112 63.2066 15.0636L63.591 15.4066C63.591 15.4066 64.0258 13.8647 64.2327 12.5202ZM64.134 9.65069C63.9124 8.47661 63.591 7.33703 63.591 7.33703L63.2704 7.66211C63.6584 8.26459 63.9532 8.93448 64.134 9.65069ZM49.6995 7.66211C48.5231 5.83555 46.4898 4.62855 44.1786 4.62855C40.5389 4.62855 37.5884 7.62183 37.5884 11.3142C37.5884 15.0066 40.5389 17.9999 44.1786 17.9999C46.4485 17.9999 48.4504 16.8356 49.6357 15.0636L47.7793 13.4076C47.0635 14.6721 45.7191 15.5237 44.1786 15.5237C43.5245 15.5237 42.9057 15.3702 42.3554 15.0967L47.9058 9.46216L47.9119 9.47487L49.6995 7.66211ZM50.5631 9.65069C50.6777 10.2579 50.7657 10.8744 50.7687 11.3472L50.7688 11.3142C50.7688 10.7399 50.6974 10.1825 50.5631 9.65069ZM50.7634 11.587C50.75 11.8686 50.7129 12.1884 50.6618 12.5202C50.7165 12.2158 50.7508 11.9043 50.7634 11.587ZM40.0292 11.3142C40.0292 8.98939 41.8869 7.10473 44.1786 7.10473C44.9704 7.10473 45.7105 7.32976 46.34 7.72023L40.6206 13.4813C40.2451 12.8483 40.0292 12.1068 40.0292 11.3142ZM64.3078 17.9996L67.0214 18L68.0163 15.32H73.3718L74.2861 18L77 17.9996L71.7418 4.62863H69.4064L64.3078 17.9996ZM68.8437 12.8697H72.4644L70.5447 7.71433L68.8437 12.8697ZM27.5122 18L24.7986 17.9996L29.8972 4.62863H32.2325L37.4908 17.9996L34.7769 18L33.8626 15.32H33.8618L31.0354 7.71433L28.5068 15.3207L27.5122 18ZM2.71589 4.62855H0V17.9999H2.71589V12.3506L7.81089 17.9999H11.1068L5.26384 11.1186L11.1068 4.62855H7.81089L2.71589 10.0825V4.62855Z" fill="white"/>
</svg>
